<svg width="100" height="90" viewBox="0 0 100 90" fill="none" xmlns="http://www.w3.org/2000/svg">
<rect width="99.68" height="90.0023" rx="22" fill="#F37168"/>
<path d="M54.7538 56.2147C54.9161 55.8371 55.0064 55.4214 55.0064 54.9849C55.0064 53.2616 53.6043 51.8594 51.8809 51.8594H50.5504H47.4013L48.8937 49.3489C49.3329 48.61 49.4446 47.7136 49.2003 46.8895C48.9559 46.0655 48.3734 45.375 47.6026 44.9952C46.7351 44.5676 45.702 44.5733 44.8391 45.01C42.3665 46.2619 40.1165 47.9731 38.2371 50.0159C38.0699 49.7176 37.7513 49.5157 37.3851 49.5157H28.7913C28.2521 49.5157 27.8148 49.953 27.8148 50.4923V55.8634C27.8148 56.4026 28.2521 56.8399 28.7913 56.8399C29.3306 56.8399 29.7679 56.4026 29.7679 55.8634V51.4688H36.4085V69.0469H29.7679V64.6524C29.7679 64.1132 29.3306 63.6759 28.7913 63.6759C28.2521 63.6759 27.8148 64.1132 27.8148 64.6524V70.0235C27.8148 70.5628 28.2521 71.0001 28.7913 71.0001H37.3851C37.9243 71.0001 38.3616 70.5628 38.3616 70.0235V69.9884C39.5232 70.6417 40.8462 71.0001 42.1898 71.0001H51.2034C52.9258 71.0001 54.3269 69.5988 54.3269 67.8765C54.3269 67.4628 54.2453 67.0679 54.0985 66.7062H54.1594C55.8828 66.7062 57.285 65.3042 57.285 63.5807C57.285 62.7488 56.9576 61.9925 56.4258 61.4318C56.9576 60.8712 57.285 60.1147 57.285 59.2828C57.2849 57.7627 56.1939 56.4931 54.7538 56.2147ZM54.1593 64.753H47.7871C47.2479 64.753 46.8106 65.1903 46.8106 65.7296C46.8106 66.2688 47.2479 66.7061 47.7871 66.7061H51.2032C51.8485 66.7061 52.3735 67.2311 52.3735 67.8764C52.3735 68.5218 51.8486 69.0469 51.2033 69.0469H42.1897C40.7886 69.0469 39.4169 68.5284 38.3615 67.6145V52.9096L38.4282 52.8221C40.3587 50.2895 42.8806 48.1908 45.7214 46.7526C46.0391 46.5917 46.4194 46.5895 46.7393 46.7471C47.0275 46.889 47.2364 47.1369 47.3277 47.4449C47.4192 47.7529 47.3789 48.0746 47.2149 48.3508L44.8452 52.337C44.6657 52.6387 44.6622 53.0136 44.8358 53.3188C45.0094 53.6241 45.3335 53.8126 45.6846 53.8126H51.8808C52.5272 53.8126 53.0531 54.3385 53.0531 54.9849C53.0531 55.6313 52.5272 56.1573 51.8808 56.1573H47.7871C47.2479 56.1573 46.8106 56.5946 46.8106 57.1339C46.8106 57.6731 47.2479 58.1104 47.7871 58.1104H54.1593C54.8058 58.1104 55.3317 58.6364 55.3317 59.2828C55.3317 59.9293 54.8058 60.4552 54.1593 60.4552H47.7871C47.2479 60.4552 46.8106 60.8926 46.8106 61.4318C46.8106 61.9711 47.2479 62.4084 47.7871 62.4084H54.1593C54.8058 62.4084 55.3317 62.9343 55.3317 63.5807C55.3317 64.2271 54.8059 64.753 54.1593 64.753Z" fill="white"/>
<path d="M59.7544 33.0837L55.5645 32.475L53.6907 28.6781C53.5261 28.3448 53.1867 28.1338 52.8149 28.1338C52.4431 28.1338 52.1037 28.3448 51.9391 28.6781L50.0653 32.475L45.8753 33.0837C45.5074 33.1372 45.2019 33.3949 45.087 33.7484C44.9721 34.102 45.0679 34.49 45.334 34.7495L48.366 37.7049L47.6502 41.8779C47.5874 42.2443 47.738 42.6145 48.0388 42.833C48.3396 43.0515 48.7383 43.0802 49.0672 42.9074L52.8149 40.9371L56.5625 42.9074C56.7054 42.9826 56.8615 43.0195 57.0168 43.0195C57.2193 43.0195 57.4208 42.9565 57.591 42.833C57.8917 42.6145 58.0423 42.2443 57.9795 41.8779L57.2638 37.7049L60.2958 34.7495C60.562 34.49 60.6577 34.102 60.5428 33.7484C60.428 33.3949 60.1224 33.1372 59.7544 33.0837ZM55.5329 36.6646C55.3028 36.889 55.1977 37.2121 55.252 37.529L55.7201 40.2578L53.2694 38.9694C53.1272 38.8946 52.971 38.8573 52.815 38.8573C52.6589 38.8573 52.5028 38.8947 52.3606 38.9694L49.9099 40.2578L50.378 37.529C50.4323 37.2122 50.3272 36.889 50.0971 36.6646L48.1145 34.732L50.8543 34.334C51.1725 34.2877 51.4474 34.0879 51.5897 33.7997L52.815 31.3169L54.0403 33.7997C54.1826 34.0879 54.4575 34.2877 54.7756 34.334L57.5155 34.732L55.5329 36.6646Z" fill="white"/>
<path d="M74.1373 35.4154C74.0224 35.0619 73.7168 34.8042 73.349 34.7507L70.1389 34.2844L68.7034 31.3754C68.5388 31.0421 68.1994 30.8311 67.8276 30.8311C67.4558 30.8311 67.1163 31.0421 66.9518 31.3754L65.5162 34.2844L62.3062 34.7507C61.9382 34.8042 61.6328 35.0619 61.5178 35.4154C61.403 35.7689 61.4988 36.157 61.7649 36.4165L64.0877 38.6808L63.5394 41.8778C63.4765 42.2442 63.6272 42.6145 63.928 42.8329C64.2288 43.0516 64.6275 43.0801 64.9564 42.9073L67.8276 41.3979L70.6988 42.9073C70.8416 42.9824 70.9977 43.0194 71.1531 43.0194C71.3555 43.0194 71.5571 42.9564 71.7272 42.8329C72.0279 42.6145 72.1786 42.2442 72.1158 41.8778L71.5674 38.6808L73.8903 36.4165C74.1564 36.157 74.2521 35.7689 74.1373 35.4154ZM69.8364 37.6404C69.6063 37.8648 69.5012 38.188 69.5555 38.5049L69.8562 40.2577L68.282 39.4301C68.1397 39.3553 67.9836 39.318 67.8276 39.318C67.6715 39.318 67.5155 39.3554 67.3732 39.4301L65.799 40.2577L66.0996 38.5049C66.1539 38.1881 66.0489 37.8648 65.8188 37.6404L64.5452 36.399L66.3051 36.1434C66.6233 36.0971 66.8982 35.8973 67.0405 35.6091L67.8276 34.0142L68.6147 35.6091C68.757 35.8973 69.0319 36.0971 69.35 36.1434L71.11 36.399L69.8364 37.6404Z" fill="white"/>
<path d="M34.0618 38.6808L33.5134 41.8778C33.4505 42.2442 33.6012 42.6145 33.902 42.8329C34.2028 43.0516 34.6014 43.0801 34.9304 42.9073L37.8016 41.3979L40.6728 42.9073C40.8157 42.9824 40.9717 43.0194 41.1271 43.0194C41.3295 43.0194 41.5311 42.9564 41.7012 42.8329C42.0019 42.6145 42.1526 42.2442 42.0898 41.8778L41.5415 38.6808L43.8643 36.4165C44.1305 36.157 44.2262 35.7689 44.1114 35.4154C43.9964 35.0619 43.6909 34.8042 43.323 34.7507L40.1129 34.2844L38.6774 31.3754C38.5128 31.0421 38.1734 30.8311 37.8016 30.8311C37.4298 30.8311 37.0904 31.0421 36.9258 31.3754L35.4903 34.2844L32.2802 34.7507C31.9123 34.8042 31.6068 35.0619 31.4918 35.4154C31.377 35.7689 31.4728 36.157 31.7389 36.4165L34.0618 38.6808ZM36.2791 36.1434C36.5973 36.0971 36.8722 35.8973 37.0145 35.6091L37.8016 34.0142L38.5887 35.6091C38.731 35.8973 39.0059 36.0971 39.3241 36.1434L41.084 36.399L39.8104 37.6404C39.5803 37.8648 39.4752 38.188 39.5295 38.5049L39.8302 40.2577L38.256 39.4301C38.1137 39.3553 37.9577 39.318 37.8016 39.318C37.6456 39.318 37.4895 39.3554 37.3472 39.4301L35.773 40.2577L36.0737 38.5049C36.128 38.1881 36.0229 37.8648 35.7928 37.6404L34.5192 36.399L36.2791 36.1434Z" fill="white"/>
<path d="M52.8047 25.8358C53.344 25.8358 53.7813 25.3985 53.7813 24.8593V21.9766C53.7813 21.4373 53.344 21 52.8047 21C52.2655 21 51.8282 21.4373 51.8282 21.9766V24.8593C51.8282 25.3985 52.2655 25.8358 52.8047 25.8358Z" fill="white"/>
<path d="M45.6011 27.9405C45.7918 28.1311 46.0417 28.2265 46.2916 28.2265C46.5415 28.2265 46.7914 28.1311 46.9821 27.9405C47.3635 27.5591 47.3635 26.9408 46.9821 26.5593L45.2905 24.8677C44.9091 24.4865 44.2909 24.4865 43.9094 24.8677C43.528 25.2491 43.528 25.8674 43.9094 26.2489L45.6011 27.9405Z" fill="white"/>
<path d="M59.3385 28.2265C59.5884 28.2265 59.8383 28.1311 60.029 27.9404L61.7207 26.2488C62.1021 25.8675 62.1021 25.2492 61.7207 24.8677C61.3394 24.4865 60.7212 24.4864 60.3396 24.8677L58.6479 26.5594C58.2665 26.9407 58.2665 27.559 58.6479 27.9405C58.8387 28.1311 59.0885 28.2265 59.3385 28.2265Z" fill="white"/>
<path d="M29.4819 60.9481C29.6635 60.7666 29.768 60.5146 29.768 60.2578C29.768 60.001 29.6636 59.749 29.4819 59.5674C29.2993 59.3857 29.0483 59.2812 28.7914 59.2812C28.5346 59.2812 28.2827 59.3856 28.1 59.5674C27.9185 59.749 27.8149 60.001 27.8149 60.2578C27.8149 60.5146 27.9185 60.7666 28.1 60.9481C28.2827 61.1298 28.5336 61.2344 28.7914 61.2344C29.0483 61.2344 29.3002 61.1299 29.4819 60.9481Z" fill="white"/>
</svg>
